<svg width="195" height="195" viewBox="0 0 195 195" fill="none" xmlns="http://www.w3.org/2000/svg">
<path d="M195 97.5C195 110.304 192.478 122.982 187.578 134.812C182.678 146.641 175.497 157.389 166.443 166.443C157.389 175.497 146.641 182.678 134.812 187.578C122.982 192.478 110.304 195 97.5 195C84.6961 195 72.0176 192.478 60.1884 187.578C48.3591 182.678 37.6108 175.497 28.5571 166.443C19.5034 157.389 12.3216 146.641 7.42174 134.812C2.52191 122.982 -1.11935e-06 110.304 0 97.5L97.5 97.5H195Z" fill="#F2FCFB"/>
<path d="M177 97.5C177 107.94 174.944 118.278 170.948 127.923C166.953 137.569 161.097 146.333 153.715 153.715C146.333 161.097 137.569 166.953 127.923 170.948C118.278 174.944 107.94 177 97.5 177C87.0599 177 76.722 174.944 67.0767 170.948C57.4313 166.953 48.6673 161.097 41.285 153.715C33.9028 146.333 28.0468 137.569 24.0516 127.923C20.0563 118.278 18 107.94 18 97.5L97.5 97.5H177Z" fill="#E4F8F7"/>
<path d="M160 97.5C160 114.076 153.415 129.973 141.694 141.694C129.973 153.415 114.076 160 97.5 160C80.924 160 65.0269 153.415 53.3058 141.694C41.5848 129.973 35 114.076 35 97.5L97.5 97.5H160Z" fill="#B2ECD3"/>
</svg>
