<svg width="154" height="30" viewBox="0 0 154 30" fill="none" xmlns="http://www.w3.org/2000/svg">
<path d="M0.225597 20.3621L2.17264 20.054V2.21893L0 1.93892L0.112799 0.00708008H13.7127L13.3741 5.41091L10.6655 5.32685L10.4962 1.93892H6.29213V9.97452H8.12597L8.54932 8.12674L10.4397 8.18278V13.7265H8.54932L8.09793 11.8225H6.26388V20.334H10.4962L10.8913 16.6383L13.7409 16.7224L13.9665 22.35H0.141252L0.225597 20.3621ZM15.2364 22.378L15.3211 20.7261L16.8446 20.4181V9.16271L15.0671 8.99459V7.31473L19.5251 6.67085L19.8637 7.62276V8.26664C20.9358 7.14681 22.2337 6.47471 23.8985 6.47471C26.3252 6.47471 28.1308 7.93079 28.1308 10.8145V20.3901L29.7392 20.6981L29.6545 22.35H24.3499V11.6546C24.3499 10.1144 23.7857 9.24657 22.3748 9.24657C21.8951 9.24657 21.5565 9.33064 21.1899 9.47054C20.9643 9.66669 20.7383 9.9467 20.5409 10.1987V20.4461L22.1492 20.7542L22.0364 22.406H15.2364V22.378ZM100.475 22.378L100.532 20.7261L102.055 20.4181V9.16271L100.278 8.99459V7.31473L104.736 6.67085L105.074 7.62276V8.26664C106.147 7.14681 107.444 6.47471 109.109 6.47471C111.536 6.47471 113.341 7.93079 113.341 10.8145V20.3901L114.95 20.6981L114.865 22.35H109.589V11.6546C109.589 10.1144 109.025 9.24657 107.614 9.24657C107.134 9.24657 106.795 9.33064 106.429 9.47054C106.203 9.66669 105.977 9.9467 105.78 10.1987V20.4461L107.388 20.7542L107.275 22.406H100.475V22.378ZM38.1473 22.0699C37.5266 22.3219 36.4262 22.6021 34.9873 22.6021C33.0967 22.6021 31.3472 21.7621 31.3472 19.0183V9.16251L29.5417 8.8827L29.6262 6.92284L31.6578 6.83878L32.5323 3.84294L35.1283 3.73086V6.95066H37.9217L37.7241 8.91072L35.1564 9.19073V19.0461C35.1564 19.8581 35.608 20.3901 36.4545 20.3901H37.978L38.1473 22.0699ZM143.758 22.378L143.814 20.7542L145.253 20.4181V9.16271L143.56 8.99459V7.31473L148.188 6.67085L148.498 7.76267V8.12674C149.711 7.23067 151.348 6.64283 153.323 6.64283L154 7.23067L153.52 11.4864L150.981 11.4026L150.727 9.13469C150.135 9.21855 149.57 9.38668 149.09 9.72253V20.4461L150.699 20.7822L150.586 22.406H143.758V22.378ZM77.3103 22.378L77.3951 20.7542L78.834 20.4181V9.16271L77.141 8.99459V7.31473L81.7684 6.67085L82.0788 7.76267V8.12674C83.2921 7.23067 84.9286 6.64283 86.9037 6.64283L87.5809 7.23067L87.0448 11.4864L84.5053 11.4026L84.2512 9.13469C83.659 9.21855 83.0946 9.38668 82.6149 9.72253V20.4461L84.2232 20.7822L84.1104 22.406H77.3103V22.378ZM39.2759 22.378L39.3606 20.7542L40.7996 20.4181V9.16271L39.1066 8.99459V7.31473L43.734 6.67085L44.0443 7.76267V8.12674C45.2577 7.23067 46.8941 6.64283 48.841 6.64283L49.5182 7.23067L49.0385 11.4864L46.499 11.4026L46.245 9.13469C45.6525 9.21855 45.0884 9.38668 44.6087 9.72253V20.4461L46.2169 20.7822L46.1041 22.406H39.2759V22.378ZM53.8915 15.5183C53.8915 18.2063 55.0764 20.2782 57.4186 20.2782C58.6319 20.2782 59.5912 20.0262 60.7198 19.494L61.3687 20.9781C60.2119 21.902 58.5189 22.6019 56.4028 22.6019C52.2833 22.6019 49.9133 19.0741 49.9133 14.5383C49.9133 10.6746 51.6343 6.44668 56.3463 6.44668C60.466 6.44668 62.0177 10.2265 62.0177 14.4264L61.6226 15.4344L53.8915 15.5183ZM53.8352 13.7265L58.5754 13.5023C58.4907 11.6266 58.0958 8.65874 56.2335 8.65874C55.7821 8.65874 55.4717 8.7426 54.9073 9.02261C54.1456 10.3108 53.8352 12.6345 53.8352 13.7265ZM119.464 15.5183C119.464 18.2063 120.649 20.2782 122.991 20.2782C124.205 20.2782 125.164 20.0262 126.292 19.494L126.941 20.9781C125.785 21.902 124.092 22.6019 121.976 22.6019C117.856 22.6019 115.486 19.0741 115.486 14.5383C115.486 10.6746 117.207 6.44668 121.919 6.44668C126.039 6.44668 127.59 10.2265 127.59 14.4264L127.195 15.4344L119.464 15.5183ZM119.408 13.7265L124.148 13.5023C124.063 11.6266 123.668 8.65874 121.806 8.65874C121.355 8.65874 121.044 8.7426 120.48 9.02261C119.718 10.3108 119.408 12.6345 119.408 13.7265ZM91.926 15.5183C91.926 18.2063 93.1109 20.2782 95.453 20.2782C96.6664 20.2782 97.6257 20.0262 98.7541 19.494L99.403 20.9781C98.2464 21.902 96.5534 22.6019 94.4372 22.6019C90.3176 22.6019 87.9478 19.0741 87.9478 14.5383C87.9478 10.6746 89.6688 6.44668 94.3807 6.44668C98.5002 6.44668 100.052 10.2265 100.052 14.4264L99.6571 15.4344L91.926 15.5183ZM91.8695 13.7265L96.6099 13.5023C96.5251 11.6266 96.1302 8.65874 94.2679 8.65874C93.8165 8.65874 93.506 8.7426 92.9418 9.02261C92.18 10.3108 91.8414 12.6345 91.8695 13.7265ZM138.256 22.378L137.861 21.0342C136.817 22.0139 135.801 22.6019 134.221 22.6019C131.794 22.6019 129.622 21.398 129.622 18.0662V8.77082L127.844 8.60269V7.11879L132.98 6.53075L133.375 7.87475V17.618C133.375 19.3259 134.08 20.222 135.462 20.222C135.857 20.222 136.365 20.1659 136.817 19.998C137.082 19.7342 137.319 19.4432 137.522 19.1299V8.77062L135.688 8.60269V7.11879L140.88 6.53075L141.275 7.87475V20.4181L142.883 20.7261L142.686 22.378H138.256ZM69.7205 20.3621C68.9023 20.3621 68.2531 20.2222 67.7454 19.9422V10.0584C67.971 9.72233 68.2251 9.4145 68.4791 9.13449C68.9588 8.96636 69.3819 8.91052 69.8896 8.91052C72.006 8.91052 72.3726 11.0383 72.3726 14.8462C72.3726 18.5141 71.8084 19.522 71.6674 19.942C71.0747 20.222 70.454 20.3619 69.7203 20.3619L69.7205 20.3621ZM76.0407 14.1745C76.0407 9.44272 74.63 6.47471 71.103 6.47471C68.761 6.47471 67.6607 7.81871 67.2093 8.37873V7.84653L66.8142 6.50273L62.215 7.14681V8.77062L63.9928 8.99459V28.0898L62.4691 28.3977L62.3843 29.9937H69.1844L69.2972 28.3977L67.6889 28.0898V22.0421C68.3379 22.406 69.2409 22.63 70.2282 22.63C75.9842 22.63 76.0407 16.8342 76.0407 14.1745Z" fill="white"/>
</svg>
