<svg width="119" height="30" viewBox="0 0 119 30" fill="none" xmlns="http://www.w3.org/2000/svg">
<path d="M72.3958 8.4632C70.5058 8.4632 69.0212 8.87315 67.5359 9.69148C67.5359 5.3231 67.5359 1.36468 67.6716 0L58.6246 1.63745V2.45657L59.5696 2.59296C60.7836 2.86574 61.1906 3.54768 61.4581 5.18671C61.7302 8.4632 61.5937 25.9375 61.4581 28.8048C63.8884 29.3512 66.4544 29.7611 69.0205 29.7611C76.1766 29.7611 80.497 25.2556 80.497 18.1563C80.497 12.5596 76.9867 8.4632 72.3958 8.4632ZM69.2902 28.2585C68.7499 28.2585 68.0739 28.2585 67.67 28.1229C67.5343 26.2119 67.4002 18.1563 67.5343 11.0577C68.3445 10.7842 68.884 10.6478 69.56 10.6478C72.5323 10.6478 74.1525 14.197 74.1525 18.5646C74.1517 24.0273 72.126 28.2585 69.2902 28.2585ZM24.5982 0.545555H0.83429V1.77384L2.18474 1.91023C3.93908 2.18301 4.61509 3.27491 4.88409 5.86866C5.29032 10.7834 5.15465 19.6581 4.88409 23.8885C4.61431 26.4831 3.93986 27.7121 2.18474 27.8469L0.83429 28.1213V29.2132H16.0916V28.1213L14.4714 27.8469C12.7162 27.7113 12.041 26.4831 11.7712 23.8885C11.6356 22.1131 11.5007 19.2458 11.5007 15.6973L14.7411 15.8337C16.7668 15.8337 17.7111 17.4719 18.1165 19.7921H19.3321V10.1022H18.1165C17.7103 12.4232 16.7668 14.0606 14.7411 14.0606L11.5015 14.1978C11.5015 9.55588 11.6364 5.1875 11.772 2.59375H16.497C20.1437 2.59375 22.0337 4.91394 23.3834 9.01033L24.7339 8.60037L24.5982 0.545555Z" fill="white"/>
<path d="M32.2949 8.19052C39.0464 8.19052 42.4217 12.8325 42.4217 18.9755C42.4217 24.8457 38.6409 29.762 31.8894 29.762C25.1387 29.762 21.7634 25.1193 21.7634 18.9755C21.7634 13.1052 25.5434 8.19052 32.2949 8.19052ZM31.8894 9.55598C28.9187 9.55598 28.1086 13.6516 28.1086 18.9755C28.1086 24.163 29.4591 28.395 32.16 28.395C35.2632 28.395 36.0749 24.2994 36.0749 18.9755C36.0749 13.788 34.726 9.55598 31.8894 9.55598ZM82.2515 19.1126C82.2515 13.5152 85.7617 8.19052 92.6481 8.19052C98.3174 8.19052 101.019 12.4233 101.019 18.02H88.4619C88.3262 23.0711 90.7565 26.7575 95.618 26.7575C97.7786 26.7575 98.8585 26.2127 100.21 25.2564L100.748 25.9384C99.398 27.8494 96.4281 29.762 92.6481 29.762C86.5719 29.7612 82.2515 25.3928 82.2515 19.1126ZM88.4619 16.5189L94.8079 16.3817C94.8079 13.6516 94.4024 9.55598 92.1078 9.55598C89.8131 9.55598 88.596 13.378 88.4619 16.5189ZM117.089 9.28321C115.469 8.59969 113.309 8.19052 110.878 8.19052C105.884 8.19052 102.776 11.1934 102.776 14.7435C102.776 18.2935 105.07 19.7946 108.314 20.8873C111.689 22.1148 112.634 23.0711 112.634 24.7093C112.634 26.3476 111.419 27.8486 109.258 27.8486C106.694 27.8486 104.802 26.3476 103.318 22.2512L102.372 22.5255L102.507 28.5321C104.128 29.2141 107.098 29.7612 109.664 29.7612C114.93 29.7612 118.306 27.0295 118.306 22.7983C118.306 19.931 116.82 18.2935 113.31 16.9273C109.528 15.4262 108.179 14.4707 108.179 12.6953C108.179 10.9207 109.396 9.69158 111.016 9.69158C113.445 9.69158 115.065 11.1934 116.283 14.8799L117.227 14.6071L117.089 9.28321ZM59.9737 8.73686C57.679 7.37298 53.6277 8.05413 51.4679 12.9696L51.602 8.19131L42.5566 9.96594V10.7851L43.5016 10.9214C44.7179 11.0586 45.2567 11.7406 45.3924 13.516C45.6622 16.7925 45.5273 22.5271 45.3924 25.3936C45.2567 27.0303 44.7179 27.8494 43.5016 27.9866L42.5566 28.1238V29.2157H55.113V28.1238L53.4928 27.9866C52.1431 27.8494 51.7377 27.0303 51.602 25.3936C51.3322 22.7991 51.3322 17.6116 51.4679 14.3351C52.1423 13.3788 55.113 12.5605 57.8131 14.3351L59.9737 8.73686Z" fill="white"/>
</svg>
