<svg width="55" height="65" viewBox="0 0 55 65" fill="none" xmlns="http://www.w3.org/2000/svg">
<path d="M44.2482 33.3114C43.5443 33.2989 42.8403 33.3988 42.13 33.4487C42.1866 33.3676 41.3883 32.6438 41.4449 32.5627C40.2758 31.6954 39.9615 31.4645 38.6541 30.4974C38.6352 30.5286 38.6164 30.5536 38.5975 30.5848C38.5912 30.591 38.5912 30.5973 38.5912 30.6035C38.5912 30.6097 38.5912 30.6097 38.5912 30.6035C38.5912 30.591 38.5912 30.5473 38.5787 30.4413C38.6038 30.46 38.629 30.4787 38.6541 30.4974C38.7924 30.2853 38.9307 30.0794 39.069 29.8672C43.3054 23.7026 43.7894 17.2073 40.0621 10.7807C36.297 4.3041 30.3509 1.40274 22.7894 2.1078C14.6999 2.85654 8.33893 9.14593 7.15725 17.4195C6.06356 25.0878 10.7903 33.0494 18.2889 35.8322C19.7283 36.3688 20.0175 37.0426 19.6906 38.4465C19.2883 38.4465 18.9615 38.4465 18.6284 38.4465C15.2719 38.4153 13.4491 40.1936 13.4428 43.5005C13.4428 46.7887 13.3359 50.0831 13.4994 53.3651C13.5685 54.6754 13.9582 56.1479 14.681 57.2211C16.309 59.6233 18.2449 61.8258 20.0552 64.1032C20.7906 65.0329 21.7146 65.3262 22.6637 64.5462C23.5814 63.7975 23.3865 62.899 22.6825 62.038C21.2369 60.2597 19.8352 58.444 18.3769 56.6783C17.4027 55.499 16.8118 54.2386 16.8433 52.6476C16.9124 49.5965 16.8621 46.5454 16.837 43.4943C16.8307 42.4647 17.0758 41.6661 18.3015 41.6474C19.6341 41.6286 19.8226 42.5022 19.81 43.5754C19.7849 45.7654 19.7723 47.9617 19.8163 50.1518C19.8415 51.2562 20.4323 51.9675 21.6203 51.9175C22.7265 51.8676 23.2042 51.1626 23.2357 50.1143C23.242 49.7836 23.2357 49.4467 23.2357 49.116C23.2357 41.0109 23.2357 32.9121 23.2357 24.807C23.2357 24.4264 23.0911 23.9397 23.2734 23.6839C23.6442 23.1723 24.1785 22.461 24.6688 22.436C25.1716 22.4111 25.8127 23.0412 26.1836 23.5404C26.4224 23.8586 26.2904 24.4638 26.2904 24.938C26.2967 29.7986 26.2967 34.6592 26.2967 39.5259C26.2967 40.6179 26.6864 41.4352 27.9184 41.4352C29.1881 41.4352 29.6721 40.6802 29.6343 39.476C29.5966 38.2406 29.6281 36.999 29.6281 35.7573C29.6343 34.0352 30.0869 33.3239 31.212 33.4113C32.7645 33.5298 32.7583 34.6779 32.7394 35.8322C32.7143 37.0239 32.7645 38.2157 32.7268 39.4074C32.6891 40.5804 33.0725 41.4165 34.3611 41.4415C35.637 41.4602 36.1085 40.6179 36.1273 39.476C36.1525 38.2344 36.1525 36.999 36.1336 35.7573C36.1147 34.734 36.517 34.0789 37.6233 34.0914C38.7107 34.1038 39.1192 34.7527 39.1004 35.776C39.0752 37.0614 39.069 38.3529 39.1004 39.6383C39.1318 40.7614 39.7226 41.4539 40.8855 41.429C41.998 41.404 42.4694 40.674 42.5197 39.6383C42.5386 39.2576 42.5511 38.8708 42.5197 38.4964C42.438 37.3671 42.8654 36.5622 44.0722 36.5684C45.2225 36.5747 45.5431 37.392 45.5368 38.4403C45.5116 41.5413 45.4488 44.6423 45.5493 47.7371C45.6939 52.2857 45.4551 56.7656 43.9591 61.1145C43.758 61.6948 43.582 62.2938 43.4688 62.899C43.2865 63.8786 43.6825 64.7584 44.6568 64.8333C45.2916 64.8832 46.4293 64.3903 46.5676 63.9098C47.4664 60.865 48.6041 57.7889 48.799 54.6692C49.151 49.116 48.9184 43.5192 48.887 37.9474C48.8744 35.2831 46.9133 33.3613 44.2482 33.3114ZM29.6343 28.8377C29.6343 27.0408 29.6532 25.4372 29.6281 23.8399C29.5841 21.0009 27.7047 19.1353 24.8573 19.0605C22.0477 18.9856 19.9106 20.9635 19.8163 23.79C19.7598 25.3998 19.8038 27.0158 19.8038 28.6568C15.7684 27.2279 13.7005 22.1552 14.0776 18.5363C14.593 13.6072 18.6472 9.45167 23.3174 9.02114C28.8612 8.50951 33.5817 11.5668 35.0211 16.5896C36.3976 21.3815 34.1914 26.5915 29.6343 28.8377ZM34.8136 30.1917C34.4491 30.5349 33.8017 30.5848 33.3177 30.7532C34.7822 28.5257 36.473 26.6289 37.3907 24.4077C39.5027 19.2788 38.4907 14.4245 34.7634 10.3626C31.0486 6.31321 26.2527 5.02788 20.9854 6.53159C15.7873 8.02283 12.4937 11.5793 11.4 16.9078C10.1492 22.9664 13.1222 28.8814 18.6975 31.6642C19.7283 32.1821 19.7283 32.1821 19.678 33.2927C14.6748 31.2462 11.4 27.7146 10.344 22.4984C8.6972 14.3746 13.6439 7.03699 21.7523 5.22754C31.0235 3.15604 40.0495 10.8119 39.4838 20.2335C39.2387 24.1768 37.6736 27.4838 34.8136 30.1917Z" fill="white"/>
</svg>
