<svg width="55" height="65" viewBox="0 0 55 65" fill="none" xmlns="http://www.w3.org/2000/svg">
<g clip-path="url(#clip0)">
<path d="M23.7388 2.54698C18.9724 6.4211 13.476 8.53943 7.38552 9.15076C5.77524 9.31426 4.1578 9.34269 2.54036 9.42088C1.15195 9.49197 0.171465 10.3734 0.149994 11.6529C0.0641126 18.2283 -0.250787 24.8108 0.400482 31.379C0.765479 35.0896 1.40959 38.7363 2.59762 42.2834C4.62299 48.2972 8.00816 53.4011 12.9392 57.4671C17.04 60.8437 21.7063 63.1753 26.716 64.8884C27.2313 65.0661 27.9184 65.0306 28.448 64.8529C32.0407 63.6302 35.4616 62.045 38.6536 59.9907C45.61 55.5052 50.2691 49.3066 52.7095 41.4446C54.2769 36.3976 54.8852 31.1942 54.9782 25.941C55.0641 21.3063 54.8995 16.6715 54.9138 12.0368C54.921 10.4445 53.8331 9.47064 52.2372 9.39956C49.7967 9.28582 47.3419 9.13655 44.9372 8.75269C40.3139 8.0063 36.0986 6.20074 32.3556 3.37156C30.9242 2.29107 29.5573 1.13239 28.1545 0.0163574C27.7251 0.0163574 27.3029 0.0163574 26.8735 0.0163574C26.2652 0.478409 25.6497 0.940461 25.0485 1.43095C24.6048 1.78637 24.1897 2.18445 23.7388 2.54698ZM27.5176 5.37616C34.016 11.0558 41.6952 13.6149 50.2333 13.9419C50.2619 14.1267 50.2977 14.2618 50.2977 14.4039C50.3335 18.1501 50.4551 21.8963 50.3836 25.6425C50.2834 30.9169 49.7323 36.1417 47.9932 41.1816C45.8748 47.3162 42.0817 52.1642 36.6783 55.7895C33.9301 57.6306 30.9672 59.0452 27.8683 60.1968C27.675 60.2679 27.4031 60.2821 27.2099 60.211C22.5866 58.4979 18.2925 56.2232 14.6354 52.8751C10.5417 49.1289 7.89365 44.5297 6.41935 39.241C5.39593 35.5588 4.82338 31.7984 4.75897 27.9811C4.68025 23.517 4.7375 19.0529 4.73035 14.5888C4.73035 14.4039 4.75182 14.2191 4.76613 13.949C13.297 13.622 20.9834 11.0772 27.5176 5.37616Z" fill="white"/>
<path d="M22.3936 40.1201C23.7463 41.4636 24.9558 41.4636 26.3084 40.1201C30.3162 36.1394 34.3312 32.1586 38.3318 28.1708C38.5394 27.9646 38.7541 27.7442 38.9187 27.5026C39.7703 26.2657 39.1978 24.5312 37.7736 24.062C36.7788 23.7351 35.9486 24.0478 35.2258 24.7729C32.0983 27.8935 28.9564 30.9999 25.8217 34.1206C25.3422 34.5968 24.8842 35.0944 24.2687 35.7413C24.0826 35.4641 23.9824 35.2366 23.8178 35.0731C22.4509 33.7012 21.0911 32.3292 19.7027 30.9857C18.5934 29.9123 17.0761 29.9976 16.1744 31.1279C15.4444 32.052 15.5589 33.3386 16.5036 34.2769C18.4645 36.2318 20.4327 38.1724 22.3936 40.1201Z" fill="white"/>
</g>
<defs>
<clipPath id="clip0">
<rect width="55" height="65" fill="white"/>
</clipPath>
</defs>
</svg>
