<svg width="58" height="69" viewBox="0 0 58 69" fill="none" xmlns="http://www.w3.org/2000/svg">
<path d="M44.3775 16.4942C44.2159 16.3174 44.0485 16.1407 43.8637 15.9934C43.477 15.6871 43.0671 15.3984 42.6688 15.0979C42.5475 15.0979 42.4205 15.0979 42.2993 15.0979C42.0395 15.2864 41.7336 15.4337 41.52 15.6694C39.3205 18.0142 37.1268 20.359 34.9505 22.7274C33.8248 23.947 32.7337 25.2019 31.6369 26.445C31.3655 26.7513 31.2501 27.1166 31.4233 27.5113C31.5849 27.8825 31.8966 28.0593 32.2834 28.071C33.3341 28.0946 34.3905 28.1005 35.4412 28.1182C35.5393 28.1182 35.6432 28.1182 35.7587 28.1182C35.7587 29.4968 35.776 30.8342 35.7471 32.1656C35.7413 32.5839 35.8453 32.908 36.0993 33.2379C37.5194 35.0702 38.7548 37.0262 39.5918 39.2178C40.2211 40.8733 40.7753 42.5701 40.8907 44.3493C40.9946 45.9577 40.9484 47.572 40.9484 49.1863C40.9484 49.6753 40.9138 50.176 40.8388 50.6591C40.5097 52.7624 39.8574 54.7597 38.9568 56.6744C38.1313 58.436 37.0749 60.0502 35.8568 61.5585C35.7875 61.641 35.7298 61.7588 35.7298 61.8648C35.7471 62.454 35.776 63.049 35.8164 63.6382C35.851 64.2332 36.1108 64.7045 36.5957 65.0639C36.9306 65.3114 37.2827 65.4115 37.6752 65.4115C41.0581 65.4292 44.4352 65.4469 47.8181 65.4587C47.8932 65.4587 47.974 65.4292 48.0375 65.3939C48.4936 65.1111 48.8803 64.7576 49.1805 64.298C49.3075 64.1036 49.3653 63.9151 49.3653 63.6794C49.3595 51.9553 49.3595 40.2311 49.3595 28.507C49.3595 28.3892 49.3595 28.2655 49.3595 28.1358C49.5096 28.1358 49.6135 28.1358 49.7174 28.1358C50.693 28.13 51.6686 28.1241 52.6442 28.1241C53.158 28.1241 53.6025 28.0121 53.7815 27.4348C53.7815 27.2934 53.7815 27.1461 53.7815 27.0047C53.0541 26.1209 52.3671 25.2078 51.5993 24.3653C49.2152 21.7141 46.7906 19.11 44.3775 16.4942Z" fill="white"/>
<path d="M19.4332 29.1965C9.58472 29.3556 2.11466 37.7864 2.10889 47.2128C2.10312 56.9927 9.98882 65.3646 19.8315 65.235C29.299 65.4294 37.4445 57.1282 37.4733 47.2246C37.4964 38.2636 30.2688 29.0139 19.4332 29.1965ZM30.5113 55.455C28.4677 58.1651 25.8295 59.9738 22.5274 60.669C21.6326 60.8576 20.6974 60.8458 19.7796 60.9283C14.0587 61.1993 8.1646 56.6923 6.7618 50.5886C5.57837 45.4394 6.9119 40.9796 10.5834 37.2738C12.5 35.3414 14.8438 34.1748 17.4993 33.6917C18.7 33.4738 19.9181 33.5268 21.1246 33.6269C24.623 33.9215 27.4921 35.5122 29.8243 38.134C31.5273 40.0487 32.5953 42.311 33.034 44.8503C33.1668 45.6221 33.1091 46.4233 33.1437 47.2069C33.2938 50.2941 32.3355 53.0336 30.5113 55.455Z" fill="white"/>
<path d="M23.1511 46.5764C22.3948 46.1699 21.6039 45.8223 20.8304 45.4334C20.155 45.0976 19.4622 44.7854 18.8214 44.3847C18.2153 44.0018 18.1171 43.3655 18.2615 42.6939C18.4 42.0635 18.8214 41.6982 19.4334 41.5627C20.1896 41.3919 20.9574 41.4095 21.7136 41.545C22.3833 41.6629 23.0472 41.8514 23.711 42.0222C23.8842 42.0694 23.9708 42.0222 24.017 41.8455C24.1671 41.2564 24.346 40.6731 24.4788 40.0839C24.5885 39.6067 24.5192 39.5066 24.0574 39.3593C23.1107 39.0588 22.1581 38.7878 21.1133 38.7996C21.1133 38.5168 21.119 38.2693 21.1133 38.016C21.1017 37.5447 21.0902 37.0675 21.0728 36.5962C21.0671 36.3958 20.9574 36.278 20.7553 36.278C20.3339 36.2721 19.9125 36.278 19.4969 36.278C19.2717 36.278 19.162 36.3958 19.1563 36.6256C19.1389 37.2501 19.1159 37.8805 19.1159 38.505C19.1159 38.7112 19.0754 38.7996 18.8561 38.8408C17.9901 38.994 17.1762 39.2945 16.4777 39.8542C15.681 40.4905 15.0575 41.2563 14.9421 42.3227C14.8786 42.9237 14.9132 43.5423 14.8901 44.1491C14.867 44.75 15.0345 45.292 15.3462 45.8046C15.6521 46.3113 16.0447 46.7414 16.5527 47.0183C17.3782 47.466 18.2326 47.8666 19.0697 48.2967C19.6874 48.6149 20.3281 48.8977 20.8997 49.2865C22.0658 50.0819 21.6559 51.7551 20.7611 52.2264C20.3859 52.4208 19.9645 52.6211 19.5546 52.6388C18.6829 52.68 17.7996 52.6388 16.9279 52.5563C16.3911 52.5033 15.8715 52.3206 15.3404 52.191C15.1499 52.1439 14.9998 52.138 14.9421 52.3854C14.7862 53.0571 14.6015 53.7169 14.4572 54.3886C14.3763 54.7597 14.4514 54.8893 14.8151 54.9836C15.7214 55.2134 16.6393 55.4314 17.5572 55.6022C18.0536 55.6906 18.5674 55.667 19.0985 55.6965C19.0985 55.8202 19.0985 55.9439 19.0985 56.0676C19.1043 56.5861 19.0928 57.1105 19.1101 57.6289C19.1274 58.0767 19.2717 58.2181 19.7105 58.2416C19.9818 58.2534 20.2531 58.2534 20.5244 58.2475C20.9285 58.2357 21.0555 58.112 21.0902 57.6996C21.1017 57.5405 21.1017 57.3756 21.1017 57.2165C21.1017 56.6332 21.1017 56.0559 21.1017 55.5197C21.6674 55.2782 22.2274 55.1014 22.7297 54.8128C24.0285 54.0586 24.9349 52.9923 25.0792 51.4016C25.1196 50.9538 25.1081 50.506 25.1196 50.0583C25.1773 48.4617 24.5019 47.3069 23.1511 46.5764Z" fill="white"/>
</svg>
