<svg width="19" height="19" viewBox="0 0 19 19" fill="none" xmlns="http://www.w3.org/2000/svg">
<path fill-rule="evenodd" clip-rule="evenodd" d="M9.5 0C14.7432 0 19 4.25682 19 9.5C19 14.7432 14.7432 19 9.5 19C4.25682 19 0 14.7432 0 9.5C0 4.25682 4.25682 0 9.5 0ZM9.5 3.5625C7.88749 3.5625 7.68528 3.56933 7.05197 3.59824C6.42 3.62707 5.98838 3.72745 5.61068 3.87422C5.22025 4.02596 4.88912 4.22898 4.55903 4.55907C4.22895 4.88916 4.02592 5.22029 3.87418 5.61071C3.72741 5.98838 3.62707 6.42 3.5982 7.05197C3.56933 7.68528 3.5625 7.88749 3.5625 9.5C3.5625 11.1125 3.56933 11.3147 3.5982 11.948C3.62707 12.58 3.72741 13.0116 3.87418 13.3893C4.02592 13.7797 4.22895 14.1108 4.55903 14.441C4.88912 14.7711 5.22025 14.9741 5.61068 15.1258C5.98838 15.2725 6.42 15.3729 7.05197 15.4018C7.68528 15.4307 7.88749 15.4375 9.5 15.4375C11.1125 15.4375 11.3147 15.4307 11.948 15.4018C12.58 15.3729 13.0116 15.2725 13.3893 15.1258C13.7797 14.9741 14.1108 14.7711 14.441 14.441C14.7711 14.1108 14.9741 13.7797 15.1258 13.3893C15.2725 13.0116 15.3729 12.58 15.4018 11.948C15.4307 11.3147 15.4375 11.1125 15.4375 9.5C15.4375 7.88749 15.4307 7.68528 15.4018 7.05197C15.3729 6.42 15.2725 5.98838 15.1258 5.61071C14.9741 5.22029 14.7711 4.88916 14.441 4.55907C14.1108 4.22898 13.7797 4.02596 13.3893 3.87422C13.0116 3.72745 12.58 3.62707 11.948 3.59824C11.3147 3.56933 11.1125 3.5625 9.5 3.5625ZM9.5 4.63233C11.0854 4.63233 11.2732 4.63837 11.8993 4.66695C12.4782 4.69337 12.7925 4.79008 13.0018 4.87138C13.2789 4.97908 13.4767 5.10777 13.6845 5.31555C13.8923 5.52329 14.0209 5.72112 14.1286 5.99825C14.2099 6.20747 14.3067 6.52182 14.3331 7.10073C14.3616 7.72684 14.3677 7.91461 14.3677 9.5C14.3677 11.0854 14.3616 11.2732 14.3331 11.8993C14.3067 12.4782 14.2099 12.7925 14.1286 13.0018C14.0209 13.2789 13.8923 13.4767 13.6845 13.6845C13.4767 13.8923 13.2789 14.0209 13.0018 14.1286C12.7925 14.2099 12.4782 14.3067 11.8993 14.3331C11.2733 14.3616 11.0855 14.3677 9.5 14.3677C7.9145 14.3677 7.72677 14.3616 7.10073 14.3331C6.52182 14.3067 6.20747 14.2099 5.99825 14.1286C5.72108 14.0209 5.52328 13.8923 5.31551 13.6845C5.10773 13.4767 4.97908 13.2789 4.87138 13.0018C4.79008 12.7925 4.69333 12.4782 4.66691 11.8993C4.63834 11.2732 4.63233 11.0854 4.63233 9.5C4.63233 7.91461 4.63834 7.72684 4.66691 7.10073C4.69333 6.52182 4.79008 6.20747 4.87138 5.99825C4.97908 5.72112 5.10773 5.52329 5.31551 5.31555C5.52328 5.10777 5.72108 4.97908 5.99825 4.87138C6.20747 4.79008 6.52182 4.69337 7.10073 4.66695C7.72684 4.63837 7.91461 4.63233 9.5 4.63233ZM9.5 6.45102C7.81609 6.45102 6.45102 7.81609 6.45102 9.5C6.45102 11.1839 7.81609 12.549 9.5 12.549C11.1839 12.549 12.549 11.1839 12.549 9.5C12.549 7.81609 11.1839 6.45102 9.5 6.45102ZM9.5 11.4792C8.40694 11.4792 7.52085 10.5931 7.52085 9.5C7.52085 8.40694 8.40694 7.52085 9.5 7.52085C10.5931 7.52085 11.4792 8.40694 11.4792 9.5C11.4792 10.5931 10.5931 11.4792 9.5 11.4792ZM13.382 6.33056C13.382 6.72407 13.0629 7.04303 12.6694 7.04303C12.276 7.04303 11.957 6.72407 11.957 6.33056C11.957 5.93705 12.276 5.61806 12.6694 5.61806C13.0629 5.61806 13.382 5.93705 13.382 6.33056Z" fill="#BDBDBD"/>
</svg>
