<svg width="19" height="19" viewBox="0 0 19 19" fill="none" xmlns="http://www.w3.org/2000/svg">
<path d="M9.5 0C4.25362 0 0 4.25303 0 9.5C0 14.7464 4.25362 19 9.5 19C14.7464 19 19 14.7464 19 9.5C19 4.25303 14.7464 0 9.5 0ZM7.03237 13.227H5.09438V7.39634H7.03237V13.227ZM6.06337 6.60013H6.05091C5.40016 6.60013 4.97978 6.15184 4.97978 5.59253C4.97978 5.02075 5.41322 4.58553 6.07584 4.58553C6.73847 4.58553 7.14697 5.02075 7.15944 5.59253C7.15944 6.15244 6.73847 6.60013 6.06337 6.60013ZM14.0202 13.227H12.0822V10.1074C12.0822 9.32366 11.802 8.78928 11.1002 8.78928C10.5652 8.78928 10.2463 9.14969 10.1062 9.49822C10.0552 9.62291 10.0421 9.79688 10.0421 9.97084V13.227H8.10469C8.10469 13.227 8.13022 7.94378 8.10469 7.39634H10.0427V8.22225C10.2998 7.82503 10.7605 7.25919 11.7895 7.25919C13.0643 7.25919 14.0202 8.09281 14.0202 9.88356V13.227Z" fill="#BDBDBD"/>
</svg>
