<svg width="331" height="22" viewBox="0 0 331 22" fill="none" xmlns="http://www.w3.org/2000/svg">
<path d="M9.67587 0.296356C12.6157 0.296356 15.0347 1.26489 16.9329 3.20195C18.8311 5.13901 19.7802 7.5668 19.7802 10.4982C19.7802 13.4296 18.8079 15.8833 16.8635 17.8591C14.919 19.8349 12.4768 20.8163 9.53698 20.8163H3.11328V0.296356H9.67587ZM7.12954 16.9422H9.75689C11.5046 16.9422 12.9514 16.3352 14.0857 15.1213C15.2199 13.9074 15.7871 12.3836 15.7871 10.5499C15.7871 8.71612 15.2199 7.1923 14.0857 5.99132C12.9514 4.79034 11.5046 4.18339 9.75689 4.18339H7.12954V16.9422Z" fill="url(#paint0_radial)"/>
<path d="M38.7038 3.02182C40.5326 5.03636 41.4469 7.52872 41.4469 10.4989C41.4469 13.469 40.5094 15.9743 38.6344 18.0276C36.7594 20.0809 34.4561 21.1011 31.7246 21.1011C28.9931 21.1011 26.7129 20.0938 24.8842 18.0922C23.0555 16.0905 22.1411 13.5982 22.1411 10.628C22.1411 7.65785 23.0786 5.13967 24.9537 3.08639C26.8287 1.0331 29.132 0 31.8635 0C34.595 0 36.8751 1.00727 38.7038 3.02182ZM35.845 15.1478C36.9214 13.921 37.4654 12.3843 37.4654 10.5505C37.4654 8.72969 36.9214 7.20587 35.845 5.97907C34.7686 4.75226 33.426 4.1324 31.8172 4.1324C30.1852 4.1324 28.8426 4.75226 27.7662 5.97907C26.7014 7.20587 26.1689 8.72969 26.1689 10.5505C26.1689 12.3843 26.7014 13.921 27.7662 15.1478C28.831 16.3746 30.1852 16.9945 31.8172 16.9945C33.426 16.9945 34.7686 16.3875 35.845 15.1478Z" fill="url(#paint1_radial)"/>
<path d="M62.4081 9.6724C62.4428 10.0469 62.4659 10.4214 62.4659 10.8088C62.4428 13.7144 61.5979 16.168 59.908 18.1309C58.2182 20.1067 56.0538 21.0882 53.4033 21.0882C50.6718 21.0882 48.3916 20.0809 46.5629 18.0663C44.7342 16.0518 43.8198 13.5594 43.8198 10.5893C43.8198 7.61911 44.7573 5.11384 46.6324 3.06056C48.4958 1.02019 50.7991 0 53.5306 0C54.445 0 55.3015 0.10331 56.1232 0.322844C56.9334 0.542377 57.6047 0.800653 58.114 1.11058C58.6349 1.42051 59.0862 1.73044 59.4798 2.05329C59.8733 2.36322 60.1627 2.6344 60.3363 2.84102L60.5678 3.16387L57.7784 6.32774C57.7436 6.26317 57.6858 6.18569 57.6047 6.09529C57.5237 5.99198 57.3501 5.81119 57.0839 5.55291C56.8177 5.29464 56.5283 5.06219 56.2158 4.86848C55.9149 4.67478 55.5098 4.49398 55.0121 4.33902C54.5144 4.18405 53.9936 4.10657 53.4496 4.10657C51.8176 4.10657 50.475 4.72643 49.4102 5.95324C48.3454 7.18004 47.8129 8.72969 47.8129 10.5893C47.8129 12.4489 48.3454 13.9985 49.4102 15.2382C50.475 16.4779 51.8292 17.0978 53.4496 17.0978C54.7228 17.0978 55.7992 16.7233 56.6788 15.9743C57.5584 15.2253 58.1024 14.2051 58.3339 12.9137H53.2644V9.68531H62.4081V9.6724Z" fill="url(#paint2_radial)"/>
<path d="M65.7417 20.8034V0.296356H79.272V4.19631H69.7695V8.44493H77.9641V12.0737H69.7695V16.9422H79.5382V20.8163H65.7417V20.8034Z" fill="url(#paint3_radial)"/>
<path d="M84.4338 3.08639C86.3089 1.0331 88.6122 0 91.3437 0C92.258 0 93.1145 0.116224 93.9363 0.335757C94.7465 0.555291 95.4178 0.839394 95.9502 1.16224C96.4711 1.48508 96.934 1.80792 97.316 2.14368C97.6979 2.47944 97.9757 2.76354 98.1609 2.99599L98.4271 3.31883L95.4873 6.18569C95.4525 6.12112 95.3947 6.05655 95.3252 5.96615C95.2558 5.87576 95.0937 5.72079 94.8275 5.48834C94.5613 5.2559 94.2835 5.04928 94.0058 4.85557C93.7164 4.67478 93.3229 4.5069 92.8368 4.35193C92.3506 4.20988 91.8414 4.1324 91.309 4.1324C89.677 4.1324 88.3344 4.75226 87.258 5.97907C86.1931 7.20587 85.6607 8.7297 85.6607 10.5505C85.6607 12.3843 86.1931 13.921 87.258 15.1478C88.3228 16.3746 89.677 16.9945 91.309 16.9945C91.8645 16.9945 92.4085 16.917 92.9062 16.7491C93.4155 16.5813 93.8321 16.3876 94.1678 16.168C94.5034 15.9485 94.7928 15.716 95.0359 15.4836C95.2789 15.2511 95.4641 15.0574 95.5914 14.9025L95.7535 14.6442L98.5891 17.4594C98.5197 17.5627 98.4271 17.6918 98.2998 17.8597C98.1725 18.0276 97.8947 18.3246 97.4549 18.7379C97.015 19.164 96.5405 19.5256 96.0081 19.8484C95.4872 20.1713 94.7928 20.4683 93.9363 20.7266C93.0798 20.9848 92.177 21.1269 91.2279 21.1269C88.4964 21.1269 86.2163 20.1196 84.3876 18.118C82.5588 16.1164 81.6445 13.624 81.6445 10.6538C81.6213 7.67077 82.5588 5.15259 84.4338 3.08639Z" fill="url(#paint4_radial)"/>
<path d="M116.17 3.02182C117.999 5.03636 118.913 7.52872 118.913 10.4989C118.913 13.469 117.976 15.9743 116.101 18.0276C114.226 20.0809 111.922 21.1011 109.191 21.1011C106.459 21.1011 104.179 20.0938 102.351 18.0922C100.522 16.0905 99.6074 13.5982 99.6074 10.628C99.6074 7.65785 100.545 5.13967 102.42 3.08639C104.295 1.0331 106.598 0 109.33 0C112.061 0 114.341 1.00727 116.17 3.02182ZM113.311 15.1478C114.388 13.921 114.932 12.3843 114.932 10.5505C114.932 8.72969 114.388 7.20587 113.311 5.97907C112.235 4.75226 110.881 4.1324 109.272 4.1324C107.64 4.1324 106.297 4.75226 105.221 5.97907C104.156 7.20587 103.624 8.72969 103.624 10.5505C103.624 12.3843 104.156 13.921 105.221 15.1478C106.286 16.3746 107.64 16.9945 109.272 16.9945C110.881 16.9945 112.235 16.3875 113.311 15.1478Z" fill="url(#paint5_radial)"/>
<path d="M122.328 0.296356H126.449V20.8034H122.328V0.296356Z" fill="url(#paint6_radial)"/>
<path d="M134.689 6.97276V20.8034H130.777V0.296356H134.932L143.416 13.7783V0.296356H147.328V20.8034H143.416L134.689 6.97276Z" fill="url(#paint7_radial)"/>
<path d="M161.264 7.87673V20.8034H157.398V0.296356H161.518L167.086 12.1899L172.653 0.296356H176.565V20.8163H172.699V7.87673L168.023 17.717H165.917L161.264 7.87673Z" fill="#6F7CB2"/>
<path d="M180.905 0.296356H185.026V20.8163H180.905V0.296356Z" fill="#6F7CB2"/>
<path d="M189.354 20.8034V0.296356H193.371V16.826H202.352V20.8163H189.354V20.8034Z" fill="#6F7CB2"/>
<path d="M204.853 20.8034V0.296356H208.869V16.826H217.85V20.8163H204.853V20.8034Z" fill="#6F7CB2"/>
<path d="M220.466 0.296356H224.586V20.8163H220.466V0.296356Z" fill="#6F7CB2"/>
<path d="M244.564 3.02182C246.392 5.03636 247.307 7.52872 247.307 10.4989C247.307 13.469 246.369 15.9743 244.494 18.0276C242.619 20.0809 240.316 21.1011 237.584 21.1011C234.853 21.1011 232.573 20.0938 230.744 18.0922C228.915 16.0905 228.001 13.5982 228.001 10.628C228.001 7.65785 228.938 5.13967 230.814 3.08639C232.689 1.02019 234.992 0 237.723 0C240.455 0 242.735 1.00727 244.564 3.02182ZM241.705 15.1478C242.781 13.921 243.325 12.3843 243.325 10.5505C243.325 8.72969 242.781 7.20587 241.705 5.97907C240.628 4.75226 239.286 4.1324 237.677 4.1324C236.045 4.1324 234.702 4.75226 233.626 5.97907C232.561 7.20587 232.029 8.72969 232.029 10.5505C232.029 12.3843 232.561 13.921 233.626 15.1478C234.691 16.3746 236.045 16.9945 237.677 16.9945C239.286 16.9945 240.628 16.3875 241.705 15.1478Z" fill="#6F7CB2"/>
<path d="M254.506 6.97276V20.8034H250.594V0.296356H254.749L263.233 13.7783V0.296356H267.145V20.8163H263.233L254.506 6.97276Z" fill="#6F7CB2"/>
<path d="M288.14 20.8034H283.731L282.261 16.4902H274.911L273.441 20.8034H269.24L276.694 0.283478H280.687L288.14 20.8034ZM276.011 12.9519H281.126L278.58 5.42315L276.011 12.9519Z" fill="#6F7CB2"/>
<path d="M290.375 0.296356H294.495V20.8163H290.375V0.296356Z" fill="#6F7CB2"/>
<path d="M298.824 0.296356H307.041C308.997 0.296356 310.595 0.916216 311.822 2.14302C313.048 3.36983 313.662 4.97113 313.662 6.94694C313.662 8.39328 313.315 9.65882 312.62 10.7565C311.926 11.8542 310.988 12.6419 309.796 13.1326L314.449 20.8163H309.796L305.676 13.7525H302.84V20.8163H298.824V0.296356ZM302.84 4.06717V10.2787H306.544C307.504 10.2787 308.268 9.99458 308.824 9.41346C309.379 8.83234 309.669 8.08335 309.669 7.16647C309.669 6.24959 309.391 5.5006 308.824 4.91948C308.268 4.33836 307.504 4.05426 306.544 4.05426H302.84V4.06717Z" fill="#6F7CB2"/>
<path d="M317.204 20.8034V0.296356H330.734V4.19631H321.231V8.44493H329.426V12.0737H321.231V16.9422H331V20.8163H317.204V20.8034Z" fill="#6F7CB2"/>
<path d="M10.3011 9.05255H0V12.0485H10.3011V9.05255Z" fill="url(#paint8_radial)"/>
<defs>
<radialGradient id="paint0_radial" cx="0" cy="0" r="1" gradientUnits="userSpaceOnUse" gradientTransform="translate(7.0109 -19.5854) scale(127.405 142.15)">
<stop stop-color="#F39353"/>
<stop offset="1" stop-color="#ED6D1F"/>
</radialGradient>
<radialGradient id="paint1_radial" cx="0" cy="0" r="1" gradientUnits="userSpaceOnUse" gradientTransform="translate(7.01069 -19.5847) scale(127.406 142.15)">
<stop stop-color="#F39353"/>
<stop offset="1" stop-color="#ED6D1F"/>
</radialGradient>
<radialGradient id="paint2_radial" cx="0" cy="0" r="1" gradientUnits="userSpaceOnUse" gradientTransform="translate(7.01084 -19.5847) scale(127.406 142.15)">
<stop stop-color="#F39353"/>
<stop offset="1" stop-color="#ED6D1F"/>
</radialGradient>
<radialGradient id="paint3_radial" cx="0" cy="0" r="1" gradientUnits="userSpaceOnUse" gradientTransform="translate(7.01115 -19.5854) scale(127.405 142.15)">
<stop stop-color="#F39353"/>
<stop offset="1" stop-color="#ED6D1F"/>
</radialGradient>
<radialGradient id="paint4_radial" cx="0" cy="0" r="1" gradientUnits="userSpaceOnUse" gradientTransform="translate(7.01086 -19.5847) scale(127.406 142.15)">
<stop stop-color="#F39353"/>
<stop offset="1" stop-color="#ED6D1F"/>
</radialGradient>
<radialGradient id="paint5_radial" cx="0" cy="0" r="1" gradientUnits="userSpaceOnUse" gradientTransform="translate(7.01061 -19.5847) scale(127.406 142.15)">
<stop stop-color="#F39353"/>
<stop offset="1" stop-color="#ED6D1F"/>
</radialGradient>
<radialGradient id="paint6_radial" cx="0" cy="0" r="1" gradientUnits="userSpaceOnUse" gradientTransform="translate(7.01148 -19.5854) scale(127.405 142.15)">
<stop stop-color="#F39353"/>
<stop offset="1" stop-color="#ED6D1F"/>
</radialGradient>
<radialGradient id="paint7_radial" cx="0" cy="0" r="1" gradientUnits="userSpaceOnUse" gradientTransform="translate(7.01062 -19.5854) scale(127.406 142.15)">
<stop stop-color="#F39353"/>
<stop offset="1" stop-color="#ED6D1F"/>
</radialGradient>
<radialGradient id="paint8_radial" cx="0" cy="0" r="1" gradientUnits="userSpaceOnUse" gradientTransform="translate(7.01109 -19.5847) scale(127.405 142.15)">
<stop stop-color="#F39353"/>
<stop offset="1" stop-color="#ED6D1F"/>
</radialGradient>
</defs>
</svg>
