<svg width="19" height="19" viewBox="0 0 19 19" fill="none" xmlns="http://www.w3.org/2000/svg">
<path d="M9.50039 0C4.25347 0 0 4.25424 0 9.50039C0 14.7473 4.25347 19 9.50039 19C14.7473 19 19 14.7473 19 9.50039C19 4.25424 14.7469 0 9.50039 0ZM14.2859 7.58488C14.2909 7.6875 14.2928 7.79051 14.2928 7.89468C14.2928 11.0586 11.8846 14.7064 7.4811 14.7064C6.12924 14.7064 4.87037 14.3102 3.81096 13.6312C3.99846 13.6532 4.18866 13.6644 4.38194 13.6644C5.50386 13.6644 6.53627 13.2816 7.35532 12.6397C6.30787 12.62 5.424 11.9275 5.11921 10.9765C5.26505 11.005 5.41512 11.0193 5.56944 11.0193C5.78781 11.0193 5.99923 10.9907 6.20023 10.9356C5.10455 10.7157 4.27932 9.7473 4.27932 8.58835C4.27932 8.57793 4.27932 8.5679 4.27971 8.55748C4.60224 8.73688 4.97145 8.84452 5.3642 8.85725C4.72145 8.42708 4.299 7.69522 4.299 6.8642C4.299 6.42554 4.41705 6.01389 4.62307 5.66049C5.80401 7.1088 7.56829 8.06211 9.55826 8.16165C9.51736 7.98688 9.49614 7.80363 9.49614 7.61613C9.49614 6.29437 10.5679 5.22222 11.8904 5.22222C12.5791 5.22222 13.201 5.51312 13.6377 5.97801C14.1833 5.87114 14.6956 5.6713 15.1582 5.39699C14.9788 5.9564 14.5995 6.42554 14.1049 6.72145C14.5899 6.66358 15.0513 6.53472 15.4803 6.34452C15.1601 6.82562 14.7539 7.2473 14.2859 7.58488Z" fill="#BDBDBD"/>
</svg>
