<svg width="92" height="18" viewBox="0 0 92 18" fill="none" xmlns="http://www.w3.org/2000/svg">
<path d="M8.66667 0L10.6125 5.98852H16.9092L11.815 9.68963L13.7608 15.6781L8.66667 11.977L3.57253 15.6781L5.51831 9.68963L0.424177 5.98852H6.72088L8.66667 0Z" fill="#FFD166"/>
<path d="M27.3334 0L29.2791 5.98852H35.5758L30.4817 9.68963L32.4275 15.6781L27.3334 11.977L22.2392 15.6781L24.185 9.68963L19.0909 5.98852H25.3876L27.3334 0Z" fill="#FFD166"/>
<path d="M46 0L47.9458 5.98852H54.2425L49.1484 9.68963L51.0941 15.6781L46 11.977L40.9059 15.6781L42.8517 9.68963L37.7575 5.98852H44.0542L46 0Z" fill="#FFD166"/>
<path d="M64.6667 0L66.6125 5.98852H72.9092L67.815 9.68963L69.7608 15.6781L64.6667 11.977L59.5725 15.6781L61.5183 9.68963L56.4242 5.98852H62.7209L64.6667 0Z" fill="#FFD166"/>
<path d="M83.3334 0L85.2791 5.98852H91.5758L86.4817 9.68963L88.4275 15.6781L83.3334 11.977L78.2392 15.6781L80.185 9.68963L75.0909 5.98852H81.3876L83.3334 0Z" fill="#FFD166"/>
</svg>
