<svg width="19" height="19" viewBox="0 0 19 19" fill="none" xmlns="http://www.w3.org/2000/svg">
<path fill-rule="evenodd" clip-rule="evenodd" d="M9.5 0C14.7432 0 19 4.25682 19 9.5C19 14.7432 14.7432 19 9.5 19C4.25682 19 0 14.7432 0 9.5C0 4.25682 4.25682 0 9.5 0ZM15.1894 6.64176C15.0529 6.1308 14.6505 5.7285 14.1396 5.59194C13.2134 5.34375 9.5 5.34375 9.5 5.34375C9.5 5.34375 5.78658 5.34375 4.8604 5.59194C4.34959 5.7285 3.94714 6.1308 3.81058 6.64176C3.5625 7.56783 3.5625 9.50007 3.5625 9.50007C3.5625 9.50007 3.5625 11.4322 3.81058 12.3582C3.94714 12.8692 4.34959 13.2716 4.8604 13.4082C5.78658 13.6562 9.5 13.6562 9.5 13.6562C9.5 13.6562 13.2134 13.6562 14.1396 13.4082C14.6505 13.2716 15.0529 12.8692 15.1894 12.3582C15.4375 11.4322 15.4375 9.50007 15.4375 9.50007C15.4375 9.50007 15.4375 7.56783 15.1894 6.64176ZM8.31246 11.2814V7.71879L11.3976 9.50007L8.31246 11.2814Z" fill="#BDBDBD"/>
</svg>
